<svg xmlns="http://www.w3.org/2000/svg" viewBox="0 0 16 16" id="Brush-3-Line--Streamline-Mingcute" height="16" width="16">
  <desc>
    Brush 3 Line Streamline Icon: https://streamlinehq.com
  </desc>
  <g fill="none" fill-rule="evenodd">
    <path d="M16 0v16H0V0h16ZM8.395999999999999 15.505333333333333l-0.008 0.0013333333333333333 -0.047333333333333324 0.023333333333333334 -0.013333333333333332 0.0026666666666666666 -0.009333333333333332 -0.0026666666666666666 -0.047333333333333324 -0.023999999999999997c-0.006666666666666666 -0.002 -0.012666666666666666 0 -0.016 0.004l-0.0026666666666666666 0.006666666666666666 -0.011333333333333334 0.2853333333333333 0.003333333333333333 0.013333333333333332 0.006666666666666666 0.008666666666666666 0.06933333333333333 0.049333333333333326 0.009999999999999998 0.0026666666666666666 0.008 -0.0026666666666666666 0.06933333333333333 -0.049333333333333326 0.008 -0.010666666666666666 0.0026666666666666666 -0.011333333333333334 -0.011333333333333334 -0.2846666666666666c-0.0013333333333333333 -0.006666666666666666 -0.005999999999999999 -0.011333333333333334 -0.010666666666666666 -0.011999999999999999Zm0.176 -0.07533333333333334 -0.009333333333333332 0.0013333333333333333 -0.12266666666666666 0.062 -0.006666666666666666 0.006666666666666666 -0.002 0.007333333333333332 0.011999999999999999 0.2866666666666666 0.003333333333333333 0.008 0.005333333333333333 0.005333333333333333 0.134 0.06133333333333333c0.008 0.0026666666666666666 0.015333333333333332 0 0.019333333333333334 -0.005333333333333333l0.0026666666666666666 -0.009333333333333332 -0.02266666666666667 -0.4093333333333333c-0.002 -0.008 -0.006666666666666666 -0.013333333333333332 -0.013333333333333332 -0.014666666666666665Zm-0.4766666666666666 0.0013333333333333333a0.015333333333333332 0.015333333333333332 0 0 0 -0.018 0.004l-0.004 0.009333333333333332 -0.02266666666666667 0.4093333333333333c0 0.008 0.004666666666666666 0.013333333333333332 0.011333333333333334 0.016l0.009999999999999998 -0.0013333333333333333 0.134 -0.062 0.006666666666666666 -0.005333333333333333 0.002 -0.007333333333333332 0.011999999999999999 -0.2866666666666666 -0.002 -0.008 -0.006666666666666666 -0.006666666666666666 -0.12266666666666666 -0.06133333333333333Z" stroke-width="0.6667"></path>
    <path fill="#000000" d="M13.929333333333332 13.632A0.6666666666666666 0.6666666666666666 0 0 1 13.333333333333332 14H3.6666666666666665c-0.42133333333333334 0 -0.6213333333333333 -0.3753333333333333 -0.7999999999999999 -0.6966666666666665a7.542 7.542 0 0 1 -0.492 -1.0773333333333333c-0.3333333333333333 -0.9093333333333333 -0.6113333333333333 -2.195333333333333 -0.36533333333333334 -3.6686666666666667a7.755333333333333 7.755333333333333 0 0 1 0.952 -2.662c0.43666666666666665 -0.7393333333333333 1.2873333333333332 -0.9466666666666665 1.994 -0.758l1.4579999999999997 0.3906666666666666 0.69 -2.5759999999999996a2 2 0 1 1 3.864 1.0353333333333332l-0.6906666666666667 2.5759999999999996 0.9053333333333333 0.24266666666666664c1.1026666666666665 0.29533333333333334 1.6733333333333331 1.4126666666666667 1.5186666666666666 2.4366666666666665 -0.07333333333333333 0.48666666666666664 -0.10266666666666666 0.9646666666666667 -0.043333333333333335 1.3119999999999998 0.076 0.44666666666666666 0.354 1.0246666666666666 0.6566666666666666 1.5373333333333332 0.2533333333333333 0.42933333333333334 0.4933333333333333 0.7613333333333332 0.5439999999999999 0.8293333333333333 0.15133333333333332 0.2053333333333333 0.18733333333333335 0.4793333333333333 0.07133333333333333 0.7106666666666667Zm-4.721333333333333 -10.806666666666667a0.6666666666666666 0.6666666666666666 0 0 0 -0.8166666666666667 0.472l-0.8626666666666667 3.2199999999999998a0.6666666666666666 0.6666666666666666 0 0 1 -0.8166666666666667 0.47133333333333327l-2.1013333333333333 -0.5633333333333332c-0.2553333333333333 -0.06866666666666665 -0.43066666666666664 0.028666666666666663 -0.5006666666666666 0.14733333333333332a6.071333333333333 6.071333333333333 0 0 0 -0.4686666666666666 0.9966666666666667l7.673333333333333 2.035333333333333c0.016666666666666666 -0.19599999999999998 0.04066666666666666 -0.3853333333333333 0.06733333333333333 -0.5613333333333332 0.06999999999999999 -0.4606666666666666 -0.19799999999999998 -0.8566666666666666 -0.5453333333333332 -0.9493333333333333l-1.5486666666666666 -0.41533333333333333a0.6666666666666666 0.6666666666666666 0 0 1 -0.47133333333333327 -0.8166666666666667l0.8626666666666667 -3.2199999999999998a0.6666666666666666 0.6666666666666666 0 0 0 -0.47133333333333327 -0.816Zm2.181333333333333 8.177999999999999L3.3106666666666666 8.860666666666667c-0.17333333333333334 1.1493333333333333 0.04466666666666667 2.1653333333333333 0.31599999999999995 2.9066666666666667 0.13866666666666666 0.3793333333333333 0.28933333333333333 0.6813333333333333 0.4033333333333333 0.8859999999999999l0.008 0.013333333333333332h1.1333333333333333c-0.2513333333333333 -0.528 -0.5086666666666666 -1.244 -0.5133333333333333 -1.9953333333333332a0.6666666666666666 0.6666666666666666 0 1 1 1.3326666666666667 -0.009333333333333332c0.003333333333333333 0.5173333333333333 0.20466666666666666 1.076 0.43733333333333335 1.5386666666666664 0.092 0.184 0.18466666666666667 0.3433333333333333 0.2613333333333333 0.4666666666666666h5.416666666666666c-0.26866666666666666 -0.4666666666666666 -0.5733333333333333 -1.0733333333333333 -0.7166666666666666 -1.664Z" stroke-width="0.6667"></path>
  </g>
</svg>